<svg xmlns="http://www.w3.org/2000/svg" viewBox="0 0 820 320" font-family="ui-monospace,Menlo,monospace"><rect width="820" height="320" fill="#0c0e12" rx="10"/><text x="410" y="28" fill="#5a6478" font-size="10" text-anchor="middle" letter-spacing="3">ONE BRAIN, MANY PERFORMERS</text><rect x="60" y="60" width="180" height="52" rx="8" fill="#12151d" stroke="#5DCAA5" stroke-width="1"/><text x="150.0" y="82" fill="#e8e4d8" font-size="12" text-anchor="middle" letter-spacing="1">THE FORGE</text><text x="150.0" y="98" fill="#7d8496" font-size="9.5" text-anchor="middle">consecrates souls</text><rect x="320" y="60" width="180" height="52" rx="8" fill="#12151d" stroke="#e8e4d8" stroke-width="1"/><text x="410.0" y="82" fill="#e8e4d8" font-size="12" text-anchor="middle" letter-spacing="1">THE CONSOLE</text><text x="410.0" y="98" fill="#7d8496" font-size="9.5" text-anchor="middle">the only truth</text><rect x="580" y="60" width="180" height="52" rx="8" fill="#12151d" stroke="#AFA9EC" stroke-width="1"/><text x="670.0" y="82" fill="#e8e4d8" font-size="12" text-anchor="middle" letter-spacing="1">TABLE VIEW</text><text x="670.0" y="98" fill="#7d8496" font-size="9.5" text-anchor="middle">filtered public slice</text><line x1="500" y1="86" x2="578" y2="86" stroke="#5a6478" stroke-width="1.2"/><text x="539.0" y="80" fill="#7d8496" font-size="9.5" text-anchor="middle">BroadcastChannel</text><line x1="240" y1="86" x2="318" y2="86" stroke="#5a6478" stroke-width="1.2"/><text x="279.0" y="80" fill="#7d8496" font-size="9.5" text-anchor="middle">effigy / soul</text><rect x="320" y="170" width="180" height="48" rx="8" fill="#12151d" stroke="#F0997B" stroke-width="1"/><text x="410.0" y="192" fill="#e8e4d8" font-size="12" text-anchor="middle" letter-spacing="1">DOCK ESP32</text><text x="410.0" y="208" fill="#7d8496" font-size="9.5" text-anchor="middle">radio bridge only</text><line x1="410" y1="112" x2="410" y2="168" stroke="#5a6478" stroke-width="1.2" stroke-dasharray="4 3"/><text x="410.0" y="106" fill="#7d8496" font-size="9.5" text-anchor="middle">Web Serial (fw v0)</text><rect x="120" y="250" width="140" height="46" rx="8" fill="#12151d" stroke="#D4537E" stroke-width="1"/><text x="190.0" y="272" fill="#e8e4d8" font-size="12" text-anchor="middle" letter-spacing="1">SHARD</text><text x="190.0" y="288" fill="#7d8496" font-size="9.5" text-anchor="middle">ring · pad · soul · ledger</text><rect x="340" y="250" width="140" height="46" rx="8" fill="#12151d" stroke="#D4537E" stroke-width="1"/><text x="410.0" y="272" fill="#e8e4d8" font-size="12" text-anchor="middle" letter-spacing="1">SHARD</text><rect x="560" y="250" width="140" height="46" rx="8" fill="#12151d" stroke="#D4537E" stroke-width="1"/><text x="630.0" y="272" fill="#e8e4d8" font-size="12" text-anchor="middle" letter-spacing="1">SHARD</text><line x1="410" y1="218" x2="190" y2="248" stroke="#5a6478" stroke-width="1.2" stroke-dasharray="4 3"/><line x1="410" y1="218" x2="410" y2="248" stroke="#5a6478" stroke-width="1.2" stroke-dasharray="4 3"/><line x1="410" y1="218" x2="630" y2="248" stroke="#5a6478" stroke-width="1.2" stroke-dasharray="4 3"/><text x="410" y="240" fill="#7d8496" font-size="9.5" text-anchor="middle">signed ESP-NOW broadcast (v1)</text></svg>