<svg xmlns="http://www.w3.org/2000/svg" viewBox="0 0 840 470" font-family="ui-monospace,Menlo,monospace"><rect x="0" y="0" width="840" height="470" rx="10" fill="#0c0e12"/><rect x="14" y="14" width="812" height="442" rx="0" fill="none"/><rect x="14" y="14" width="812" height="442" rx="8" fill="none" stroke="#2a3040" stroke-width="1"/><line x1="30" y1="408" x2="810" y2="408" stroke="#2a3040" stroke-width="1.5" opacity="1"/><text x="420" y="52" fill="#e8e4d8" font-size="20" text-anchor="middle" letter-spacing="6">THE FABRICATORS</text><text x="420" y="74" fill="#5a6478" font-size="10.5" text-anchor="middle" letter-spacing="1">cold iron: machines that cannot listen</text><rect x="754" y="32" width="32" height="32" rx="0" fill="none"/><rect x="756" y="34" width="28" height="28" fill="none" stroke="#EF9F27" stroke-width="2"/><text x="770" y="53" fill="#EF9F27" font-size="16" text-anchor="middle">F</text><polygon points="236,346 252,346 250,396 238,396" fill="#31353d" stroke="none"/><rect x="236" y="394" width="16" height="14" rx="3" fill="#22252b"/><polygon points="258,346 274,346 272,396 260,396" fill="#31353d" stroke="none"/><rect x="258" y="394" width="16" height="14" rx="3" fill="#22252b"/><polygon points="225,210 285,210 297,352 213,352" fill="#4a4f58" stroke="none"/><polygon points="249,210 261,210 257,352 253,352" fill="#31353d" stroke="none" opacity="0.7"/><polygon points="261,210 285,210 297,352 265,352" fill="#000" stroke="none" opacity="0.14"/><polygon points="225,214 237,214 231,302 217,298" fill="#3d424b" stroke="none"/><polygon points="273,214 285,214 293,298 279,302" fill="#3d424b" stroke="none"/><circle cx="224" cy="304" r="6" fill="#c8a88a"/><circle cx="286" cy="304" r="6" fill="#c8a88a"/><rect x="248" y="196" width="14" height="14" rx="0" fill="#c8a88a"/><circle cx="255" cy="178" r="17" fill="#c8a88a"/><polygon points="238,174 238,164 255,159 272,164 272,176 265,168 245,168" fill="#2c2620" stroke="none"/><circle cx="270" cy="162" r="7" fill="#2c2620"/><polygon points="231,224 279,224 285,340 225,340" fill="#6a6f78" stroke="none"/><line x1="231" y1="226" x2="225" y2="338" stroke="#31353d" stroke-width="2" opacity="1"/><line x1="279" y1="226" x2="285" y2="338" stroke="#31353d" stroke-width="2" opacity="1"/><rect x="239" y="250" width="32" height="20" rx="2" fill="#EF9F27"/><rect x="242" y="253" width="26" height="14" rx="2" fill="#4a4f58"/><rect x="279" y="290" width="22" height="30" rx="3" fill="#7d8391"/><rect x="283" y="320" width="14" height="10" rx="1" fill="#EF9F27"/><polygon points="566,350 582,350 580,396 568,396" fill="#31353d" stroke="none"/><rect x="566" y="394" width="16" height="14" rx="3" fill="#22252b"/><polygon points="588,350 604,350 602,396 590,396" fill="#31353d" stroke="none"/><rect x="588" y="394" width="16" height="14" rx="3" fill="#22252b"/><polygon points="547,202 623,202 633,356 537,356" fill="#4a4f58" stroke="none"/><polygon points="579,202 591,202 587,356 583,356" fill="#31353d" stroke="none" opacity="0.7"/><polygon points="591,202 623,202 633,356 595,356" fill="#000" stroke="none" opacity="0.14"/><polygon points="547,206 559,206 553,294 539,290" fill="#3d424b" stroke="none"/><polygon points="611,206 623,206 631,290 617,294" fill="#3d424b" stroke="none"/><circle cx="546" cy="296" r="6" fill="#8a6a52"/><circle cx="624" cy="296" r="6" fill="#8a6a52"/><rect x="578" y="188" width="14" height="14" rx="0" fill="#8a6a52"/><circle cx="585" cy="170" r="17" fill="#8a6a52"/><polygon points="568,168 569,158 585,151 601,158 602,168 593,161 577,161" fill="#3a332b" stroke="none"/><polygon points="573,178 597,178 593,190 577,190" fill="#3a332b" stroke="none" opacity="0.95"/><polygon points="557,216 613,216 619,344 551,344" fill="#6a6f78" stroke="none"/><rect x="529" y="298" width="16" height="46" rx="3" fill="#7d8391"/><rect x="519" y="286" width="36" height="18" rx="2" fill="#9aa0ad"/><rect x="525" y="290" width="24" height="10" rx="1" fill="#EF9F27"/><text x="255" y="436" fill="#7d8496" font-size="10" text-anchor="middle">certifier, third hammer · the stamp is hers</text><text x="585" y="436" fill="#7d8496" font-size="10" text-anchor="middle">line journeyman · nothing he builds can hear you</text><text x="420" y="452" fill="#3a4152" font-size="8.5" text-anchor="middle" letter-spacing="2">RECOLLECTION FIELD PLATE · THE SIX HOUSES</text></svg>